<svg height="511pt" viewBox="0 -76 511.9988 511" width="511pt" xmlns="http://www.w3.org/2000/svg"><path d="m457.269531 302.625h-401.582031l9.367188 33.691406h381.894531zm0 0" fill="#efedee"/><g fill="#d4d4d4"><path d="m239.253906 172.574219v-38.839844c0-20.351563 11.21875-38.800781 29.273438-48.148437 9.515625-4.925782 15.175781-14.640626 14.765625-25.359376-.535157-14.160156-12.050781-25.675781-26.210938-26.214843-7.492187-.277344-14.625 2.417969-20.019531 7.613281-5.402344 5.199219-8.375 12.1875-8.375 19.679688 0 9.25-7.5 16.746093-16.746094 16.746093s-16.746094-7.496093-16.746094-16.746093c0-16.679688 6.621094-32.238282 18.636719-43.804688s27.816407-17.59375 44.519531-16.953125c31.554688 1.195313 57.210938 26.851563 58.410157 58.40625.890625 23.460937-11.996094 45.589844-32.835938 56.375-6.894531 3.570313-11.179687 10.621094-11.179687 18.40625v38.839844zm0 0"/><path d="m413.289062 336.316406h33.660157l10.320312-33.691406h-77.703125c15.382813 8.953125 26.539063 20.09375 33.722656 33.691406zm0 0"/><path d="m132.433594 302.625h-76.746094l9.367188 33.691406h33.65625c7.183593-13.597656 18.339843-24.738281 33.722656-33.691406zm0 0"/></g><path d="m478.5 358.589844c-13.769531 0-26.671875-8.554688-31.550781-22.273438-23.675781-66.515625-102.195313-90.003906-190.949219-90.003906s-167.273438 23.488281-190.945312 90.003906c-6.203126 17.425782-25.355469 26.523438-42.785157 20.324219-17.425781-6.203125-26.523437-25.359375-20.320312-42.785156 16.144531-45.359375 50.246093-85.90625 96.027343-114.171875 45.90625-28.339844 100.550782-43.320313 158.023438-43.320313s112.117188 14.980469 158.023438 43.324219c45.78125 28.261719 79.882812 68.808594 96.027343 114.171875 6.203125 17.425781-2.898437 36.578125-20.324219 42.78125-3.707031 1.320313-7.5 1.949219-11.226562 1.949219zm0 0" fill="#dc9f8c"/><path d="m186.597656 216.800781c-4.269531 0-7.726562-3.460937-7.726562-7.726562v-12.5625c0-4.265625 3.457031-7.726563 7.726562-7.726563 4.265625 0 7.726563 3.460938 7.726563 7.726563v12.5625c0 4.265625-3.460938 7.726562-7.726563 7.726562zm0 0" fill="#3a484a"/><path d="m325.402344 216.800781c-4.265625 0-7.726563-3.460937-7.726563-7.726562v-12.5625c0-4.265625 3.460938-7.726563 7.726563-7.726563 4.269531 0 7.726562 3.460938 7.726562 7.726563v12.5625c0 4.265625-3.457031 7.726562-7.726562 7.726562zm0 0" fill="#3a484a"/><path d="m256 223.503906c-8.90625 0-17.269531-3.722656-22.945312-10.21875-2.808594-3.214844-2.484376-8.09375.730468-10.902344 3.214844-2.808593 8.09375-2.480468 10.902344.730469 2.742188 3.140625 6.867188 4.941407 11.3125 4.941407s8.570312-1.800782 11.3125-4.9375c2.808594-3.214844 7.6875-3.542969 10.902344-.734376 3.210937 2.808594 3.539062 7.691407.730468 10.902344-5.675781 6.496094-14.039062 10.21875-22.945312 10.21875zm0 0" fill="#3a484a"/></svg>